<svg width="14" height="18" viewBox="0 0 14 18" fill="none" xmlns="http://www.w3.org/2000/svg">
<path d="M12.2261 14.3943L12.0981 14.3162C12.0996 14.3136 12.1022 14.3082 12.103 14.3027C12.1034 14.3005 12.1034 14.2985 12.1031 14.2965C12.1028 14.2947 12.102 14.2911 12.099 14.2856L12.2261 14.3943ZM12.2261 14.3943L12.0982 14.316C12.0967 14.3185 12.0929 14.3236 12.0877 14.3273C12.0855 14.329 12.0831 14.3302 12.0804 14.3312C12.0778 14.332 12.0734 14.3332 12.0662 14.3332H1.93387C1.92669 14.3332 1.92225 14.332 1.91968 14.3312C1.91695 14.3302 1.91458 14.3289 1.91234 14.3273C1.90712 14.3235 1.90337 14.3184 1.90197 14.3161L1.90181 14.3159C1.90037 14.3135 1.89781 14.3083 1.89698 14.3028C1.89665 14.3006 1.89664 14.2986 1.89695 14.2966C1.89724 14.2948 1.89805 14.2912 1.90107 14.2856L1.76926 14.214L1.90107 14.2856L2.61963 12.9625H11.3805L12.099 14.2856L12.2308 14.214C12.2756 14.2966 12.2424 14.3676 12.2261 14.3943ZM13.0212 13.7983L13.0212 13.7982L12.232 12.3452V8.71237C12.232 6.41161 10.6838 4.46252 8.56021 3.80996V2.08961C8.56024 1.24118 7.85777 0.556055 7.00001 0.556055C6.14225 0.556055 5.43978 1.24118 5.43978 2.08961V3.80999C3.31629 4.46258 1.76794 6.41164 1.76794 8.7124V12.3453L0.978857 13.7982C0.978856 13.7982 0.978855 13.7982 0.978854 13.7982C0.797794 14.1316 0.808129 14.5256 1.00618 14.8494L1.00619 14.8494C1.20409 15.1728 1.55193 15.3652 1.93387 15.3652H5.00228C5.12925 16.3396 5.97854 17.0913 7.00001 17.0913C8.02145 17.0913 8.87077 16.3396 8.99774 15.3652H12.0662C12.4481 15.3652 12.7959 15.1728 12.9939 14.8494L12.9939 14.8494C13.1919 14.5256 13.2022 14.1316 13.0212 13.7983ZM6.48596 2.08961C6.48596 1.81586 6.71397 1.5881 6.99998 1.5881C7.28598 1.5881 7.514 1.81586 7.514 2.08961V3.60139C7.34485 3.58507 7.17339 3.57664 6.99998 3.57664C6.82652 3.57664 6.65507 3.58508 6.48596 3.6014V2.08961ZM2.81415 8.71237C2.81415 6.45241 4.68933 4.60863 7.00001 4.60863C9.31069 4.60863 11.1859 6.45241 11.1859 8.71237V11.9305H2.81415V8.71237ZM7.00001 16.0593C6.5541 16.0593 6.18025 15.7634 6.0672 15.3652H7.93287C7.81976 15.7634 7.44586 16.0593 7.00001 16.0593Z" fill="#978AF4" stroke="#978AF4" stroke-width="0.3"/>
<path d="M6.99858 5.28457C5.07605 5.28457 3.50723 6.8196 3.50723 8.71264C3.50723 9.00028 3.74413 9.22866 4.03032 9.22866C4.3165 9.22866 4.55341 9.00028 4.55341 8.71264C4.55341 7.39433 5.64773 6.31662 6.99858 6.31662C7.28477 6.31662 7.52167 6.08824 7.52167 5.80059C7.52167 5.51287 7.28475 5.28457 6.99858 5.28457Z" fill="#978AF4" stroke="#978AF4" stroke-width="0.3"/>
</svg>
