<svg width="22" height="22" viewBox="0 0 22 22" fill="none" xmlns="http://www.w3.org/2000/svg">
<g id="tabler:discount">
<g id="Group">
<path id="Vector" d="M8.25 13.75L13.75 8.25" stroke="white" stroke-width="1.5" stroke-linecap="round" stroke-linejoin="round"/>
<path id="Vector_2" d="M8.70833 9.16667C8.96146 9.16667 9.16667 8.96146 9.16667 8.70833C9.16667 8.4552 8.96146 8.25 8.70833 8.25C8.4552 8.25 8.25 8.4552 8.25 8.70833C8.25 8.96146 8.4552 9.16667 8.70833 9.16667Z" fill="white" stroke="white" stroke-width="1.5" stroke-linecap="round" stroke-linejoin="round"/>
<path id="Vector_3" d="M13.2913 13.7507C13.5445 13.7507 13.7497 13.5454 13.7497 13.2923C13.7497 13.0392 13.5445 12.834 13.2913 12.834C13.0382 12.834 12.833 13.0392 12.833 13.2923C12.833 13.5454 13.0382 13.7507 13.2913 13.7507Z" fill="white" stroke="white" stroke-width="1.5" stroke-linecap="round" stroke-linejoin="round"/>
<path id="Vector_4" d="M4.58327 6.60042C4.58327 6.06557 4.79574 5.55262 5.17394 5.17442C5.55213 4.79623 6.06508 4.58376 6.59993 4.58376H7.5166C8.04909 4.58345 8.55985 4.37256 8.93743 3.99709L9.5791 3.35542C9.76651 3.16696 9.98933 3.01739 10.2347 2.91534C10.4802 2.81328 10.7433 2.76074 11.0091 2.76074C11.2749 2.76074 11.5381 2.81328 11.7835 2.91534C12.0289 3.01739 12.2517 3.16696 12.4391 3.35542L13.0808 3.99709C13.4584 4.37256 13.9691 4.58345 14.5016 4.58376H15.4183C15.9531 4.58376 16.4661 4.79623 16.8443 5.17442C17.2225 5.55262 17.4349 6.06557 17.4349 6.60042V7.51709C17.4352 8.04958 17.6461 8.56034 18.0216 8.93792L18.6633 9.57959C18.8517 9.767 19.0013 9.98982 19.1034 10.2352C19.2054 10.4806 19.2579 10.7438 19.2579 11.0096C19.2579 11.2754 19.2054 11.5385 19.1034 11.7839C19.0013 12.0294 18.8517 12.2522 18.6633 12.4396L18.0216 13.0813C17.6461 13.4588 17.4352 13.9696 17.4349 14.5021V15.4188C17.4349 15.9536 17.2225 16.4666 16.8443 16.8448C16.4661 17.223 15.9531 17.4354 15.4183 17.4354H14.5016C13.9691 17.4357 13.4584 17.6466 13.0808 18.0221L12.4391 18.6638C12.2517 18.8522 12.0289 19.0018 11.7835 19.1038C11.5381 19.2059 11.2749 19.2584 11.0091 19.2584C10.7433 19.2584 10.4802 19.2059 10.2347 19.1038C9.98933 19.0018 9.76651 18.8522 9.5791 18.6638L8.93743 18.0221C8.55985 17.6466 8.04909 17.4357 7.5166 17.4354H6.59993C6.06508 17.4354 5.55213 17.223 5.17394 16.8448C4.79574 16.4666 4.58327 15.9536 4.58327 15.4188V14.5021C4.58296 13.9696 4.37207 13.4588 3.9966 13.0813L3.35493 12.4396C3.16647 12.2522 3.01691 12.0294 2.91485 11.7839C2.81279 11.5385 2.76025 11.2754 2.76025 11.0096C2.76025 10.7438 2.81279 10.4806 2.91485 10.2352C3.01691 9.98982 3.16647 9.767 3.35493 9.57959L3.9966 8.93792C4.37207 8.56034 4.58296 8.04958 4.58327 7.51709V6.60042" stroke="white" stroke-width="1.5" stroke-linecap="round" stroke-linejoin="round"/>
</g>
</g>
</svg>
